<?xml version="1.0" encoding="UTF-8"?>
<svg id="Layer_1" data-name="Layer 1" xmlns="http://www.w3.org/2000/svg" viewBox="0 0 512 234.04">
  <defs>
    <style>
      .cls-1 {
        fill: #07a3d7;
      }
    </style>
  </defs>
  <path class="cls-1" d="m475.42,209.03c-2.29,0-4.34,0-6.17-.23-3.89-.23-7.77-.46-11.66-.46q-2.51,0-2.74-2.51l-3.66-41.61-3.66-34.52-2.51-21.26-2.29-18.52-4.12-28.81c-1.37-10.29-2.97-20.35-5.03-30.64-.23-1.6-.23-1.83,1.6-2.06,7.09-1.37,14.4-2.06,21.72-2.06h2.51c1.14.23,1.83.92,2.06,2.29l.92,15.78,6.4,85.28,3.2,39.1,2.06,22.41,1.37,17.83ZM195.11,26.35h4.12c2.06,0,2.51.69,2.51,2.74l1.83,27.67,4.12,57.39,2.51,29.95,1.83,23.09,3.66,39.78c0,1.83-.23,2.06-2.06,2.06l-16.46-.69c-1.14.23-1.83-.46-1.83-1.6l-.69-8c-.69-6.86-1.37-13.72-1.83-20.8l-3.66-36.13-3.89-32.7-2.74-23.09-2.97-21.04c-1.37-9.37-2.97-18.98-4.57-28.35l-1.14-6.4c-.23-1.14,0-1.6,1.14-1.83,6.4-1.14,12.57-2.29,20.12-2.06Zm230.01,92.14c5.71,0,6.4.23,7.32,5.72,1.14,6.86,2.06,13.72,2.74,20.58l2.51,22.18,4.8,47.1c.23,1.14,0,1.6-1.14,1.6l-17.83,2.06c-1.83.23-2.29,0-2.51-1.83l-10.29-52.59-6.4-34.98-.92-4.8c-.23-.91.23-1.6,1.14-1.83,7.09-1.6,13.95-2.74,20.58-3.2Zm-259.96,0c6.17-.23,6.86.46,7.55,6.17,1.6,9.37,2.74,18.52,3.66,27.89l2.97,27.43,1.83,18.52,1.6,14.86c0,2.06-.23,2.52-2.06,2.74l-16.92,1.6c-1.83.23-2.29,0-2.52-1.83l-13.95-71.79-3.66-20.35c-.23-1.14.23-1.83,1.37-2.06,7.09-1.6,13.72-2.74,20.12-3.2Zm87.34,70.88v29.27c.23,1.37-.46,2.06-1.83,1.83h-5.49c-3.89,0-7.77.23-11.66.46-2.06.23-2.29.23-2.52-2.29l-3.66-41.15-1.83-20.35-2.74-31.09c-.23-2.52.23-2.97,2.29-3.2,6.4-.69,12.8-.69,19.21-.46l4.8.69c1.83.69,2.06.92,2.06,2.74l.69,12.35.23,13.72c.23,12.57.46,24.92.46,37.5Zm259.5,1.37v28.12c0,1.14-.46,1.83-1.6,1.6h-8.23c-3.2,0-6.4.23-9.37.46-1.83.23-2.06,0-2.29-2.06l-4.8-53.5-2.52-26.52-.91-13.49c-.23-1.83.23-2.29,2.06-2.29,7.54-.92,15.32-1.14,22.86-.23,2.97.23,3.43,1.14,3.66,4.12l.69,30.41.46,33.38Zm-93.51-120.95c2.29,0,4.34.23,5.94.46,1.14.23,1.6.69,1.83,1.83l2.97,31.78c.69,2.74.23,3.2-2.51,3.2l-7.77.46c-1.6.23-2.29.46-2.29-2.06l-3.2-25.84-.91-7.32c-.23-1.37.23-2.06,1.6-2.29l4.35-.23Zm-259.05,0c1.83,0,3.66.23,5.26.46.92.23,1.37.69,1.6,1.83l.91,8,2.29,24.92c.23,1.83.23,2.06-1.6,2.06l-8.92.46c-1.83.23-2.06,0-2.29-1.83l-2.06-18.29-1.83-15.32c-.23-1.14.23-1.83,1.37-1.83,1.6-.23,3.43-.46,5.26-.46Zm91.23,22.86v15.78c.23,2.51-.23,2.51-2.29,2.51-2.97,0-5.71-.23-8.46-.46-1.83-.23-2.06-.23-1.83-2.06l-.69-19.43c0-4.34,0-8.69-.23-13.03-.23-2.06,0-2.29,2.06-2.29,3.2,0,6.4.23,9.6.69,1.83,0,1.83.46,1.83,2.29v16Zm259.73.23v15.78c0,2.06-.23,2.29-2.29,2.29l-8.69-.46c-1.37-.23-2.06-.92-1.83-2.06l-.69-32.7c0-1.83.23-2.06,2.06-2.06,2.97,0,5.71.23,8.46.46,3.43.23,2.97.91,2.97,3.43v15.32Zm-358.05,12.35c.23,2.74,0,3.2-2.74,3.43l-5.49,1.37c-1.83.69-2.06.23-2.29-1.37l-5.72-32.24c-.69-2.06-.23-2.51,1.83-2.74l8-1.37c1.83-.23,2.29-.23,2.29,1.6.69,3.89,1.37,7.77,1.83,11.66l2.29,18.29v1.37Zm243.27-31.32c3.43-.69,7.09-1.14,10.75-1.6,1.14-.23,1.6.46,1.83,1.6l1.83,12.57c.92,6.17,1.6,12.35,1.83,18.52v1.83c.23.92-.23,1.6-1.14,1.83l-7.32,1.6c-1.14.23-1.6-.23-1.83-1.37l-5.94-34.07v-.92Zm-162.33,24.69c0,3.66-.23,7.09-.46,10.29,0,1.14-.46,1.6-1.6,1.83l-7.09.69c-1.14.23-1.6-.46-1.6-1.6-.46-3.43-.69-6.63-.91-10.06-.46-6.17-.92-12.57-1.14-18.98l-.46-4.57c-.23-.92.23-1.37,1.14-1.37l9.37-.69c1.6,0,2.06.23,2.06,2.06l.69,22.41Zm259.28-3.66c.23,4.35.23,8.92,0,13.26.23,2.06-.23,2.52-2.28,2.52l-6.4.69c-1.14.23-1.83-.46-1.83-1.6-.23-5.72-.69-11.66-1.14-17.38l-.92-16c-.23-1.14.23-1.6,1.14-1.6l9.15-.69c1.6,0,1.83.23,1.83,2.06.46,6.17.69,12.57.46,18.75Zm-349.13,77.97c3.66,4.35,4.35,9.14,2.74,14.4-1.37,5.03-3.89,9.37-7.55,13.03-5.94,6.17-12.8,11.2-20.35,15.09-13.03,6.86-26.52,11.66-40.93,14.18-10.29,2.06-20.58,3.43-30.86,4.12-3.2.23-6.4.23-9.6.23h-6.86c-1.83,0-2.29-.46-2.52-2.29l-1.6-22.18-4.35-43.67-4.8-41.61-2.74-22.18-2.97-21.26c-1.6-11.66-3.66-23.32-5.72-34.98C3.74,36.41,2.14,27.03.08,17.66c-.23-1.14,0-2.06,1.14-2.29L33,2.11c2.06-.92,3.89-1.6,5.94-2.06,1.37-.23,2.06.23,1.83,1.6,0,3.66,0,7.32-.23,11.2l-.23,2.97c-.23,13.26-.23,26.52,0,40.01.23,11.66.92,23.55,1.6,35.21,1.14,18.29,2.97,36.58,4.8,54.64,0,1.83.23,1.83,2.28,1.6,3.89-.69,7.55-.92,11.43-.92,12.12,0,24.23,1.37,35.9,4.34,10.29,2.52,20.12,5.95,29.95,10.29,4.8,2.29,9.14,5.03,13.26,8.23,1.6,1.14,2.74,2.29,3.89,3.66Zm257.68-2.06c4.8,3.89,6.4,9.14,5.03,15.32-1.14,5.03-3.43,9.37-6.86,13.26-5.49,6.17-11.89,10.98-18.98,14.86-13.72,7.55-28.35,12.8-43.9,15.55-8.46,1.6-16.92,2.97-25.38,3.66-4.8.46-10.06.69-15.32.46h-6.17c-1.37.23-2.06-.46-2.06-1.83-.46-6.4-.92-12.8-1.6-19.21l-3.66-39.1-3.89-34.07-4.8-38.41c-.69-6.63-1.6-13.49-2.74-20.12l-4.12-25.61c-1.83-12.12-4.12-24.23-6.63-36.35l-.23-1.6c-.46-1.14,0-2.06,1.14-2.29,11.21-4.57,22.18-9.6,33.38-13.95,2.97-1.14,6.63-2.51,6.4.23-.92,8.46-.69,16.92-.92,25.15-.23,6.86-.23,13.72.23,20.35v5.26c0,8.23.23,16.46.91,24.46.46,10.75,1.14,21.72,2.06,32.47l2.06,23.09c.23,4.34.69,8.46,1.37,12.8,0,2.51.46,2.29,2.51,2.06,4.12-.69,8.23-.92,12.35-.92,14.4.23,28.35,2.51,42.07,6.4,9.37,2.52,18.29,5.94,26.98,10.52,3.89,2.06,7.32,4.57,10.75,7.54Zm-330.61,40.24c3.43-2.06,9.37-6.17,17.6-12.57,8.23-6.63,13.26-10.98,15.32-13.26-12.35-5.49-25.15-10.29-38.41-14.63l5.49,40.47Zm291.97-24.69c.69-.69.46-1.14-.23-1.6l-5.49-2.29c-9.6-4.12-19.21-7.78-29.04-10.98l-1.37-.46c-.46-.23-.91,0-1.6.23l5.49,39.55c.69,0,1.14-.23,1.37-.46,8.92-6.4,17.83-13.03,26.75-20.12l4.12-3.89Z"/>
</svg>