<?xml version="1.0" encoding="UTF-8"?>
<svg id="_图层_1" data-name="图层 1" xmlns="http://www.w3.org/2000/svg" viewBox="0 0 130.72 183.52">
  <defs>
    <style>
      .cls-1 {
        fill: #fff;
      }
    </style>
  </defs>
  <rect class="cls-1" width="130.72" height="183.52"/>
  <path d="m56.48,22.04c-.04.13-.16.19-.32.19h-7.99l-.1-.35h6.74l.59-.7s.66.48,1.08.85Zm-5.06-5.64c-.1.85-.32,2.29-.5,3.27h4.33c.23-1.45.46-3.24.56-4.45h-6.73l-.11-.36h6.74l.42-.48,1,.78c-.1.11-.29.17-.54.2-.08,1.03-.29,2.91-.5,4.31h1.24l.46-.49.91.77c-.07.1-.23.14-.47.18-.12,2.73-.42,4.27-.94,4.74-.31.29-.74.41-1.25.41,0-.23-.04-.43-.22-.55-.17-.12-.59-.24-1-.3v-.2c.47.04,1.24.1,1.46.1s.32-.02.43-.13c.34-.29.58-1.73.71-4.15h-6.48l-.4.41-.89-.66c.12-.07.31-.17.48-.23.2-1.06.47-2.82.53-3.71l1.2.3c-.05.14-.17.26-.46.25Z"/>
  <path d="m70.91,24.27c-.04.13-.17.19-.32.19h-10.64l-.11-.36h3.86v-8.43h-3.37l-.11-.35h8.49l.6-.77s.68.54,1.1.92c-.04.13-.16.19-.32.19h-2.99v5.64c.73-1.32,1.54-3.03,1.91-3.97l1.14.65c-.05.1-.22.2-.46.16-.52.9-1.57,2.46-2.59,3.62v2.34h2l.64-.84s.73.59,1.16,1.01Zm-8.5-2.46c-.13-1.29-.92-3.08-1.52-4.26l.19-.07c2.79,2.87,2.21,5.15,1.33,4.33Zm2.09-6.14v8.43h1.82v-8.43h-1.82Z"/>
  <path d="m74.45,19.1v5.86c0,.11-.31.29-.6.29h-.17v-5.64c-.46,1.08-1.08,2.05-1.89,2.9l-.17-.16c.97-1.38,1.58-3.13,1.92-4.92h-1.5l-.1-.35h1.74v-2.81l1.21.13c-.04.18-.13.29-.44.34v2.34h.2l.52-.7s.59.47.95.83h0s.8.37.8.37h1.82v-1.4h-2.82l-.1-.35h2.91v-1.57l1.2.12c-.02.17-.13.29-.43.32v1.13h1.79l.55-.72s.64.52,1.02.88c-.02.13-.14.19-.31.19h-3.05v1.4h1.96l.4-.48,1,.74c-.08.1-.28.19-.53.24v5.97c0,.6-.11,1-1.17,1.12-.04-.24-.1-.44-.24-.58-.17-.13-.46-.22-.96-.29v-.19s1.13.1,1.36.1c.22,0,.28-.07.28-.26v-6.01h-4.73v7c0,.08-.28.28-.61.28h-.13v-7.95c-.04.11-.14.16-.29.16h-1.38v1.42c2.29,1.04,1.63,2.47.92,1.92-.13-.53-.55-1.2-.92-1.68Zm6.62-.66c-.05.14-.2.25-.46.24-.26.42-.66.98-1.03,1.43h.52l.44-.55s.49.41.8.72c-.02.13-.13.19-.29.19h-1.54v1.3h.7l.44-.56s.53.41.84.73c-.04.13-.14.19-.29.19h-1.69v2.36s-.24.23-.61.23h-.1v-2.59h-1.57l-.1-.36h1.67v-1.3h-1.44l-.1-.36h1.99c.25-.55.56-1.36.74-1.94l1.06.28Zm-2.83,1.32c-.02-.49-.36-1.12-.68-1.48l.16-.1c1.75.84,1.12,2.09.53,1.57Z"/>
  <path d="m20.48,36.44c-.04.13-.16.19-.32.19h-7.99l-.1-.35h6.74l.59-.7s.66.48,1.08.85Zm-5.06-5.64c-.1.85-.32,2.29-.5,3.27h4.33c.23-1.45.46-3.24.56-4.45h-6.73l-.11-.36h6.74l.42-.48,1,.78c-.1.11-.29.17-.54.2-.08,1.03-.29,2.91-.5,4.31h1.24l.46-.49.91.77c-.07.1-.23.14-.47.18-.12,2.73-.42,4.27-.94,4.74-.31.29-.74.41-1.25.41,0-.23-.04-.43-.22-.55-.17-.12-.59-.24-1-.3v-.2c.47.04,1.24.1,1.46.1s.32-.02.43-.13c.34-.29.58-1.73.71-4.15h-6.48l-.4.41-.89-.66c.12-.07.31-.17.48-.23.2-1.06.47-2.82.53-3.71l1.2.3c-.05.14-.17.26-.46.25Z"/>
  <path d="m23.86,34.04l-.08-.18c2.04-1.14,4.47-3.54,5.11-5.27l1.4.34c-.04.13-.18.19-.48.22,1.07,1.52,3.06,2.79,5.17,3.65l-.02.17c-.35.07-.64.35-.72.64-1.97-.97-3.79-2.55-4.65-4.29-1.1,1.73-3.44,3.69-5.72,4.74Zm2.07.77l.88.4h5.05l.46-.49,1,.76c-.08.1-.28.19-.52.25v3.57c-.01.07-.42.25-.68.25h-.12v-.79h-5.25v.62c0,.07-.34.26-.67.26h-.13v-4.83Zm4.75-1.83l.56-.7s.64.48,1.04.85c-.04.13-.16.19-.32.19h-5.34l-.1-.35h4.15Zm-3.95,2.58v2.84h5.25v-2.84h-5.25Z"/>
  <path d="m46.79,31.63c-.04.13-.16.19-.32.19h-4.51c1.08,2.41,3.07,4.58,4.98,5.58l-.04.12c-.35.02-.66.28-.8.66-1.82-1.27-3.44-3.5-4.37-6.28v7.44c0,.12-.34.32-.64.32h-.16v-6.91c-1.06,2.27-2.76,4.31-4.98,5.73l-.16-.16c2.04-1.64,3.68-4.13,4.55-6.5h-4.27l-.1-.35h4.95v-2.82l1.22.14c-.02.17-.12.28-.43.32v2.35h3.29l.64-.78s.71.54,1.14.94Z"/>
  <path d="m49.65,34.18v-2.42h-1.7l-.1-.35h1.8v-2.75l1.2.13c-.04.17-.16.29-.44.32v2.29h.4l.49-.67s.56.47.9.83c-.04.13-.14.19-.31.19h-1.48v2.18l1.71-.58.06.17-1.77.94v4.03c0,.65-.12,1.03-1.15,1.15-.04-.24-.1-.46-.24-.59-.16-.13-.43-.22-.89-.28v-.19s1.04.07,1.26.07c.2,0,.26-.06.26-.24v-3.57l-1.29.62c-.04.16-.14.28-.25.31l-.38-1.02c.38-.1,1.08-.31,1.93-.59Zm4.4,1.09c-.04.16-.16.28-.42.29-.08.46-.2.88-.34,1.26.36.91.85,1.39,1.52,1.63v-4.07h-2.87l-.1-.35h5.39l.54-.66s.62.47,1.01.83c-.04.12-.14.18-.31.18h-2.9v1.74h1.28l.55-.7s.62.49,1.01.86c-.04.13-.17.19-.31.19h-2.53v2.13c.29.04.59.05.92.05.58,0,1.87,0,2.51-.01v.17c-.26.05-.4.29-.41.6h-2.15c-1.68,0-2.66-.43-3.29-2.25-.48,1.14-1.19,1.96-2.13,2.48l-.16-.16c1.1-.96,1.81-2.44,1.98-4.44l1.2.22Zm-1.33-6.27l.82.37h3.39l.43-.48.96.73c-.08.1-.26.2-.5.25v3.25c-.01.07-.4.28-.65.28h-.12v-.6h-3.56v.43c0,.08-.34.26-.66.26h-.11v-4.5Zm4.33,1.93v-1.21h-3.56v1.21h3.56Zm-3.56,1.52h3.56v-1.18h-3.56v1.18Z"/>
  <path d="m64.26,34.16c0-.61.49-1.1,1.1-1.1s1.1.49,1.1,1.1-.49,1.1-1.1,1.1-1.1-.49-1.1-1.1Z"/>
  <path d="m75.64,31.4l.37-1.67h-3.23l-.11-.34h7.82l.56-.7s.63.49,1.05.85c-.04.12-.16.18-.32.18h-4.93l-.4,1.67h2.79l.46-.47.96.72c-.07.11-.28.2-.5.25v1.93h1.12l.58-.71s.64.49,1.03.88c-.04.13-.14.19-.31.19h-10.59l-.11-.36h3.12c.17-.58.36-1.32.54-2.07h-2.22l-.11-.36h2.42Zm-1.81,3.72l.84.38h5.35l.44-.49,1,.77c-.08.1-.28.18-.52.24v3.3c-.01.08-.42.26-.67.26h-.12v-.74h-5.54v.58c0,.08-.35.26-.65.26h-.13v-4.56Zm.78.74v2.61h5.54v-2.61h-5.54Zm4.77-4.1h-3c-.19.76-.4,1.51-.55,2.07h3.55v-2.07Z"/>
  <path d="m94.91,35.41c-.04.13-.14.19-.31.19h-4.31c-.08.23-.17.44-.28.65,5.53,1.63,5.03,3.9,4.04,3.35-.56-.85-2.06-2.16-4.15-3.14-.8,1.43-2.44,2.48-5.76,3.24l-.1-.23c3.38-.92,4.81-2.17,5.41-3.86h-5.37l-.1-.36h5.58c.37-1.31.32-2.87.32-4.74l1.26.14c-.04.16-.13.28-.42.3-.02,1.66-.02,3.08-.34,4.29h2.77l.62-.77s.7.54,1.12.94Zm-1.31-6.16l.89.84c-.08.08-.22.1-.47.11-.35.38-.96,1.09-1.4,1.49h-.19c.2-.43.47-1.09.67-1.58h-8.2l-.11-.36h8.31l.5-.49Zm-6.03,5.54c-.46-.62-1.62-1.5-2.43-1.94l.11-.13c3.45.64,3.26,2.45,2.33,2.07Zm.77-2.03c-.43-.56-1.5-1.38-2.24-1.83l.11-.12c3.26.61,3.05,2.28,2.13,1.95Z"/>
  <path d="m100.3,29.12c-.06.13-.22.23-.48.2-.3.59-.62,1.14-.98,1.67h6.43l.54-.53.94.9c-.1.08-.23.12-.48.13-.41.61-1.18,1.45-1.8,1.97l-.16-.1c.34-.54.74-1.38.98-2.03h-6.69c-.8,1.1-1.71,2.04-2.65,2.73l-.16-.13c1.16-1.21,2.46-3.25,3.25-5.35l1.26.53Zm-.34,4.85c-.06.13-.17.2-.46.16-.66,1.33-1.92,3.08-3.53,4.19l-.14-.13c1.33-1.28,2.42-3.25,2.93-4.73l1.2.52Zm2.31-1.81c-.02.17-.13.28-.42.31v5.97c0,.66-.14,1.08-1.35,1.2-.05-.25-.12-.47-.31-.6-.2-.14-.55-.24-1.17-.32v-.18s1.46.11,1.74.11c.24,0,.31-.07.31-.28v-6.34l1.21.13Zm3.37,5.69c-.26-1.32-1.46-3.11-2.41-4.21l.17-.1c3.78,2.61,3.23,5.08,2.24,4.31Z"/>
  <path d="m109.09,33.03c-.2-.53-.84-1.13-1.37-1.46l.11-.11c2.59.28,2.13,2.04,1.26,1.57Zm-.19,2.97q.24-.43,2.63-5.13l.22.07c-.6,1.46-1.76,4.2-1.96,4.77-.13.35-.2.72-.2,1.02,0,.54.35,1.08.31,2.04-.02.52-.28.84-.68.84-.23,0-.37-.22-.4-.6.17-1.25.08-2.17-.18-2.34-.17-.11-.35-.14-.61-.17v-.26h.56c.13,0,.18,0,.31-.24Zm1.27-5.42c-.22-.58-.91-1.25-1.49-1.61l.11-.12c2.74.41,2.28,2.22,1.38,1.73Zm4.13,7.78v-8.06h-2.94l-.1-.35h5.78l.56-.73s.65.5,1.06.89c-.04.13-.16.19-.32.19h-3.2v8.06h2.34l.56-.74s.67.54,1.08.91c-.04.13-.16.19-.31.19h-8.12l-.1-.36h3.71Z"/>
  <path d="m56.48,50.84c-.04.13-.16.19-.32.19h-7.99l-.1-.35h6.74l.59-.7s.66.48,1.08.85Zm-5.06-5.64c-.1.85-.32,2.29-.5,3.27h4.33c.23-1.45.46-3.24.56-4.45h-6.73l-.11-.36h6.74l.42-.48,1,.78c-.1.11-.29.17-.54.2-.08,1.03-.29,2.91-.5,4.31h1.24l.46-.49.91.77c-.07.1-.23.14-.47.18-.12,2.73-.42,4.27-.94,4.74-.31.29-.74.41-1.25.41,0-.23-.04-.43-.22-.55-.17-.12-.59-.24-1-.3v-.2c.47.04,1.24.1,1.46.1s.32-.02.43-.13c.34-.29.58-1.73.71-4.15h-6.48l-.4.41-.89-.66c.12-.07.31-.17.48-.23.2-1.06.47-2.82.53-3.71l1.2.3c-.05.14-.17.26-.46.25Z"/>
  <path d="m71.02,49.22c-.04.13-.16.19-.31.19h-10.73l-.11-.36h6.76c.74-1.35,1.64-3.53,2.25-5.42l1.32.47c-.05.12-.2.23-.48.22-.78,1.72-1.79,3.49-2.81,4.74h2.38l.61-.77s.7.54,1.12.94Zm-6.98,1.33c-.82,1.16-2.3,2.64-3.98,3.53l-.13-.16c1.45-1.06,2.81-2.77,3.45-4.05l1.12.55c-.07.13-.18.18-.46.13Zm-1.63-2.63c-.22-1.08-1.12-2.55-1.83-3.5l.17-.08c3.19,2.17,2.59,4.34,1.67,3.59Zm2.65-.62c.01-1.18-.55-2.72-1.09-3.73l.17-.07c2.58,2.31,1.8,4.64.92,3.8Zm4.96,6.57c-.56-1.2-2.25-2.82-3.5-3.75l.13-.12c4.8,2.1,4.47,4.52,3.37,3.87Z"/>
  <path d="m75.81,44.42c-.04.13-.14.19-.31.19h-1.4v3.01h.24l.48-.66s.54.48.84.83c-.01.13-.13.19-.29.19h-1.27v3.21l1.68-.56.06.17c-.76.42-1.85,1.03-3.3,1.75-.02.14-.11.25-.23.3l-.54-.95c.32-.08.89-.25,1.56-.47v-3.45h-1.28l-.1-.36h1.38v-3.01h-1.39l-.1-.36h2.47l.53-.67s.61.48.97.84Zm6.34-.25v2.42s-.07.1-.18.14c.04.02.58.44.94.78-.02.13-.14.19-.3.19h-3.11c-.28.42-.62.94-.94,1.33h2.87l.36-.44.95.7c-.07.08-.25.18-.47.22v3.48c0,.61-.1.97-.95,1.07,0-.23-.04-.44-.13-.56-.11-.12-.28-.2-.59-.25v-.19s.6.06.76.06c.14,0,.18-.07.18-.22v-3.49h-1.18v3.63c0,.06-.2.22-.54.22h-.1v-3.85h-1.15v3.91s-.22.22-.54.22h-.1v-4.13h-1.24v4.37c0,.07-.29.25-.6.25h-.12v-5.35l.8.37h1.32c.17-.41.35-.92.48-1.33h-2.82l-.1-.35h5.76l.49-.61c-.1.05-.23.07-.35.07h-.14v-.49h-4.49l-.28.41-.83-.55c.07-.07.18-.17.3-.23v-2.21l1.21.11c-.02.13-.13.23-.5.29v1.83h1.93v-2.88l1.12.12c-.02.16-.14.26-.41.3v2.46h1.94v-2.27l1.18.12c-.02.18-.14.29-.46.34Z"/>
  <path d="m52.94,67.54v-4.44h-3.85l-.1-.36h3.95v-3.84h-4.37l-.1-.36h8.01l.62-.77s.71.54,1.13.94c-.02.13-.13.19-.31.19h-4.16v3.84h2.34l.61-.74s.67.53,1.09.91c-.02.13-.14.19-.31.19h-3.73v4.44h3.27l.62-.78s.71.54,1.15.94c-.04.13-.16.18-.32.18h-10.43l-.11-.34h4.99Z"/>
  <path d="m60.32,58.05l.9.37h1.99l.43-.48.96.74c-.07.1-.28.19-.52.25v6.69c-.01.08-.37.29-.65.29h-.11v-.96h-2.25v1.16c0,.06-.25.28-.64.28h-.12v-8.35Zm.76,3.42h2.25v-2.69h-2.25v2.69Zm0,3.13h2.25v-2.78h-2.25v2.78Zm4.47-6.76l.9.4h2.83l.4-.5,1.02.76c-.08.11-.29.2-.53.25v8.54c0,.62-.13,1.04-1.35,1.18-.05-.25-.13-.46-.32-.59-.2-.13-.56-.23-1.2-.31v-.19s1.49.11,1.79.11c.25,0,.32-.07.32-.29v-3.03h-3.24c-.28,1.66-1.04,3.21-3.02,4.33l-.17-.14c2.17-1.65,2.58-3.75,2.58-6.26v-4.23Zm.77,3.49v.73c0,.58-.02,1.16-.1,1.74h3.18v-2.47h-3.08Zm0-2.75v2.4h3.08v-2.4h-3.08Z"/>
  <path d="m77.72,58.21v8.72h3.43v-6.78l1.25.13c-.04.17-.13.29-.44.34v7.54c0,.1-.34.29-.65.29h-.16v-1.18h-7.52l-.34.44-1-.6c.1-.1.26-.2.43-.28v-6.67l1.26.14c-.02.18-.16.29-.46.34v6.27h3.37v-9.19l1.25.14c-.04.17-.14.28-.43.32Z"/>
  <path d="m52.94,81.94v-4.44h-3.85l-.1-.36h3.95v-3.84h-4.37l-.1-.36h8.01l.62-.77s.71.54,1.13.94c-.02.13-.13.19-.31.19h-4.16v3.84h2.34l.61-.74s.67.53,1.09.91c-.02.13-.14.19-.31.19h-3.73v4.44h3.27l.62-.78s.71.54,1.15.94c-.04.13-.16.18-.32.18h-10.43l-.11-.33h4.99Z"/>
  <path d="m63.98,75.85c-.04,3.98.16,5.94-4.05,7l-.13-.22c3.69-1.14,3.42-3.09,3.42-7.22l1.18.13c-.04.14-.14.28-.41.3Zm1.75-3.53v2.3h3.09v-2.23l1.24.12c-.04.18-.14.29-.46.32v2.41c0,.07-.32.23-.64.23h-.14v-.5h-6.8l-.34.44-.97-.6c.1-.08.26-.19.43-.28v-2.15l1.24.13c-.02.18-.16.3-.46.35v1.75h3.02v-2.76l1.22.13c-.02.17-.14.28-.44.32Zm-4.14,4.49v3.77c0,.08-.31.25-.61.25h-.13v-4.47l1.19.13c-.02.17-.14.28-.44.32Zm7.47-.08h-4.25l-.11-.35h4.26l.41-.43.83.66c-.06.07-.2.14-.37.19v5.77c-.01.08-.38.29-.65.29h-.12v-.91h-4.85l-.11-.36h4.95v-2.31h-4.02l-.11-.36h4.13v-2.18Z"/>
  <path d="m80.03,72.24c-.02.16-.12.28-.4.31-.02.84-.04,1.63-.12,2.39h1.75l.55-.72s.64.5,1.04.88c-.04.12-.16.18-.32.18h-2.89c.44,1.94,1.57,3.2,3.27,3.86v.13c-.36.05-.61.3-.74.67-1.56-.9-2.36-2.3-2.75-4.47-.32,1.85-1.25,3.37-4.16,4.47l-.16-.2c2.52-1.15,3.35-2.64,3.62-4.46h-1.56l-.08-.31c-.88,2.23-2.39,4.22-5.07,5.43l-.13-.18c2.54-1.45,4.07-3.84,4.74-6.43h-2.13c-.14.25-.29.5-.44.74,2.04.36,1.7,1.73,1,1.37-.17-.41-.67-.86-1.14-1.16-.28.41-.58.79-.89,1.13,2.13.59,1.68,2.03.97,1.58-.13-.49-.65-1.08-1.1-1.44-.31.32-.62.61-.96.85l-.16-.13c1.04-1.1,2.07-2.93,2.65-4.89l1.15.4c-.05.14-.2.25-.46.22-.14.35-.29.68-.46,1.01h1.93l.5-.49.85.78c-.1.11-.23.14-.49.16-.11.35-.23.7-.36,1.04h1.68c.11-.88.1-1.81.11-2.83l1.15.13Zm-6.04,7.76c.25,1.51-.49,2.36-1.06,2.67-.34.22-.78.24-.91-.02-.11-.23.07-.47.31-.6.64-.26,1.37-1.02,1.44-2.06h.22Zm1.95,2.55c.1-.77-.14-1.75-.38-2.4l.16-.06c1.79,1.61.89,3.21.23,2.46Zm2.94.04c-.05-.8-.56-1.82-1.02-2.47l.16-.08c2.36,1.45,1.63,3.23.86,2.55Zm2.09-8.41c-.12-.49-.58-1.09-.96-1.44l.12-.08c2.19.59,1.56,2.05.84,1.52Zm1.09,8.53c-.25-.86-1.21-1.98-1.96-2.63l.14-.11c3.21,1.33,2.71,3.33,1.81,2.74Z"/>
  <path d="m52.94,96.34v-4.44h-3.85l-.1-.36h3.95v-3.84h-4.37l-.1-.36h8.01l.62-.77s.71.54,1.13.94c-.02.13-.13.19-.31.19h-4.16v3.84h2.34l.61-.74s.67.53,1.09.91c-.02.13-.14.19-.31.19h-3.73v4.44h3.27l.62-.78s.71.54,1.15.94c-.04.13-.16.18-.32.18h-10.43l-.11-.33h4.99Z"/>
  <path d="m75.31,91.22v1.39h.65l.52-.66s.56.47.92.83c-.04.13-.16.19-.32.19h-1.76v2.77c.77.29,1.73.35,2.95.35,1.08,0,3.6-.01,4.71-.02v.16c-.32.05-.5.31-.52.62h-4.23c-2.66,0-4.05-.46-4.97-2.79-.26,1.17-.68,2.34-1.4,3.17l-.14-.13c.8-1.4,1.1-3.73,1.13-5.58l1.16.23c-.05.18-.18.28-.44.29-.05.52-.12,1.07-.23,1.63.34.79.73,1.33,1.24,1.69v-4.54l1.12.13c-.02.16-.12.26-.37.29Zm-.18-4.51v1.36h.73l.5-.66s.6.48.97.83c-.02.13-.14.19-.31.19h-1.9v1.69h.91l.53-.67s.62.48,1,.84c-.04.13-.16.19-.31.19h-5.21l-.1-.36h2.41v-1.69h-1.96l-.1-.36h2.05v-1.8l1.19.13c-.02.17-.14.28-.42.31Zm6.44.22l.43-.46.89.73c-.1.08-.23.14-.47.17-.08,1.71-.26,2.71-.68,3.06-.26.2-.66.31-1.1.31.01-.22-.04-.42-.19-.53-.14-.12-.59-.22-.96-.28v-.22c.42.04,1.18.11,1.39.11.2,0,.29-.02.38-.1.2-.19.34-1.04.42-2.45h-1.86c-.17,1.39-.65,2.9-2.9,4.02l-.16-.18c1.79-1.2,2.11-2.61,2.19-3.84h-1.8l-.11-.36h4.52Zm-3.81,8.75h-.12v-4.53l.82.37h2.77l.43-.48.97.74c-.08.1-.28.18-.52.23v3.24c-.01.08-.38.28-.65.28h-.12v-.79h-2.95v.7c0,.07-.32.25-.64.25Zm3.59-1.31v-2.49h-2.95v2.49h2.95Z"/>
  <path d="m34.79,103.63c-.04.13-.16.19-.32.19h-4.51c1.08,2.41,3.07,4.58,4.98,5.58l-.04.12c-.35.02-.66.28-.8.66-1.82-1.27-3.44-3.5-4.37-6.28v7.44c0,.12-.34.32-.64.32h-.16v-6.91c-1.06,2.27-2.76,4.31-4.98,5.73l-.16-.16c2.04-1.64,3.68-4.13,4.55-6.5h-4.27l-.1-.35h4.95v-2.82l1.22.14c-.02.17-.12.28-.43.32v2.35h3.29l.64-.78s.71.54,1.14.94Z"/>
  <path d="m37.1,105.31c-.19-.53-.83-1.14-1.36-1.45l.11-.12c2.55.3,2.11,2.04,1.25,1.57Zm-.2,2.58q.25-.42,2.87-5.28l.22.07c-.65,1.49-1.98,4.35-2.19,4.92-.12.35-.23.72-.22,1.01,0,.52.34,1.03.29,1.98-.02.49-.25.8-.66.8-.22,0-.36-.22-.38-.59.17-1.21.08-2.08-.19-2.25-.17-.1-.36-.13-.6-.16v-.26h.56c.14,0,.19-.01.31-.24Zm1.33-5.17c-.22-.59-.9-1.28-1.46-1.65l.12-.11c2.7.43,2.23,2.24,1.34,1.76Zm7.81,4.14c-1.66,2.97-4.39,4.29-7.53,4.79l-.05-.2c2.87-.78,5.48-2.3,6.94-5.35l1.1.68c-.08.11-.2.16-.47.08Zm-4.52-3.36c-.55,1.42-1.34,2.69-2.22,3.53l-.18-.12c.61-1,1.22-2.53,1.58-4.03l1.27.41c-.05.12-.19.23-.46.22Zm1.98-2.34v6.21c0,.12-.34.31-.62.31h-.14v-6.98l1.21.13c-.02.17-.14.28-.44.32Zm2.59,4.62c-.14-.94-1-2.1-1.75-2.78l.13-.11c3.24,1.37,2.58,3.62,1.62,2.89Z"/>
  <path d="m49.09,105.03c-.2-.53-.84-1.13-1.37-1.46l.11-.11c2.59.28,2.13,2.04,1.26,1.57Zm-.19,2.97q.24-.43,2.63-5.13l.22.07c-.6,1.46-1.76,4.2-1.95,4.77-.13.35-.2.72-.2,1.02,0,.54.35,1.08.31,2.04-.02.52-.28.84-.68.84-.23,0-.37-.22-.4-.6.17-1.25.08-2.17-.18-2.34-.17-.11-.35-.14-.61-.17v-.26h.56c.13,0,.18,0,.31-.24Zm1.27-5.42c-.22-.58-.91-1.25-1.49-1.61l.11-.12c2.73.41,2.28,2.22,1.38,1.73Zm4.13,7.78v-8.06h-2.94l-.1-.35h5.78l.56-.73s.65.5,1.06.89c-.04.13-.16.19-.32.19h-3.2v8.06h2.34l.56-.74s.67.54,1.08.91c-.04.13-.16.19-.31.19h-8.12l-.1-.36h3.71Z"/>
  <path d="m64.26,106.16c0-.61.49-1.1,1.1-1.1s1.1.49,1.1,1.1-.49,1.1-1.1,1.1-1.1-.49-1.1-1.1Z"/>
  <path d="m73.03,104.99c-.17-.49-.74-1.06-1.22-1.37l.12-.11c2.46.26,1.97,1.96,1.1,1.48Zm-.24,3.03q.19-.42,2.12-5.18l.23.06c-.47,1.47-1.37,4.22-1.51,4.81-.1.37-.18.74-.17,1.04,0,.54.35,1.09.3,2.06-.02.52-.25.84-.66.84-.22,0-.35-.22-.38-.6.17-1.21.1-2.17-.17-2.35-.16-.11-.32-.14-.58-.17v-.26h.52c.16,0,.19,0,.3-.25Zm1.15-5.65c-.18-.54-.82-1.16-1.34-1.5l.11-.12c2.6.38,2.11,2.11,1.23,1.62Zm8.96.08c-.02.13-.14.19-.31.19h-5.73c-.14.26-.3.52-.47.77l.9.44h3.43l.47-.49.9.75c-.08.1-.24.16-.5.18-.02.83-.05,1.58-.07,2.25h.25l.48-.71s.55.5.89.88c-.04.13-.14.19-.31.19h-1.33c-.05,1.02-.12,1.85-.22,2.49h.17l.48-.66s.55.47.88.82c-.04.13-.13.19-.3.19h-1.28c-.13.72-.29,1.18-.49,1.42-.31.37-.78.49-1.26.49,0-.2-.04-.41-.19-.54-.16-.12-.55-.23-.96-.29v-.22c.46.04,1.15.1,1.38.1s.34-.02.44-.14c.12-.12.23-.4.31-.82h-4.19l-.37.41-.86-.64c.11-.07.29-.17.46-.24.13-.62.28-1.48.42-2.38h-1.46l-.1-.36h1.61c.17-1.09.3-2.22.37-3.03-.43.64-.94,1.22-1.49,1.67l-.16-.11c.89-1.06,1.67-2.9,2.01-4.4l1.27.4c-.05.12-.16.18-.44.13-.13.35-.29.71-.47,1.08h4.28l.55-.71s.64.5,1.02.88Zm-2.16,4.46h-4.09c-.14.9-.3,1.79-.43,2.49h4.28c.11-.61.18-1.44.24-2.49Zm.1-2.7h-3.81c-.08.66-.19,1.49-.32,2.34h4.07c.02-.7.06-1.47.07-2.34Zm-2.13,4.68c-.14-.53-.66-1.22-1.09-1.62l.13-.1c2.18.83,1.63,2.18.96,1.71Zm.24-2.76c-.17-.47-.68-1.12-1.09-1.48l.13-.1c2.12.72,1.61,2.01.96,1.57Z"/>
  <path d="m88.33,103.57c-.02.13-.13.19-.3.19h-1.52v2.22l1.67-.66.07.17-1.74,1.03v3.91c0,.66-.14,1.09-1.31,1.21-.05-.26-.12-.48-.3-.61-.19-.14-.53-.25-1.12-.32v-.2s1.37.11,1.63.11.32-.07.32-.26v-3.39l-1.3.71c-.02.14-.12.26-.23.31l-.47-.98c.4-.12,1.12-.37,1.99-.71v-2.52h-1.82l-.1-.35h1.92v-2.75l1.21.13c-.04.17-.16.28-.44.31v2.3h.41l.5-.67s.58.47.91.83Zm6.72,7.12c-.04.13-.14.19-.32.19h-7.16l-.1-.36h3.85c.56-1.85,1.12-4.32,1.42-6.13l1.34.29c-.05.16-.18.28-.46.29-.42,1.56-1.19,3.79-2,5.55h1.79l.58-.73s.66.52,1.07.9Zm-.24-7.16c-.04.13-.14.19-.31.19h-6l-.1-.35h4.8l.55-.72s.66.5,1.05.88Zm-5.06,5.86c-.04-1.14-.19-3.3-.89-4.76l.18-.08c2.43,3.31,1.33,5.81.71,4.85Zm1.32-6.58c-.1-.67-.66-1.5-1.16-1.99l.13-.1c2.53.92,1.86,2.72,1.03,2.09Z"/>
  <path d="m97.82,106.5v-2.64h-.97c-.22.68-.49,1.31-.83,1.79l-.22-.1c.41-1.08.68-2.58.76-4.02l1.14.22c-.04.14-.16.26-.41.28-.08.5-.2,1.01-.34,1.49h.86v-2.85l1.19.12c-.04.18-.13.3-.43.35v2.39h.36l.54-.73s.61.52,1,.89c-.04.13-.14.19-.31.19h-1.58v2.4l1.78-.6.06.17-1.83.97v4.53c0,.12-.31.32-.6.32h-.16v-4.47l-1.33.65c-.05.13-.14.25-.25.3l-.49-1.01c.42-.1,1.16-.32,2.08-.62Zm6.04-5.67c-.02.17-.14.29-.44.32v1.27h1.42l.55-.72s.64.53,1.01.89c-.04.13-.14.19-.3.19h-2.67v1.83h1.98l.58-.76s.64.54,1.02.9c-.04.13-.14.19-.31.19h-7.04l-.1-.34h3.09v-1.83h-2.36l-.1-.36h2.46v-1.71l1.22.12Zm1.58,4.4c-.04.17-.13.26-.42.3v1.1h.41l.54-.72s.6.52.96.88c-.01.13-.13.19-.3.19h-1.61v3.51c0,.64-.13,1.04-1.31,1.15-.04-.24-.11-.44-.28-.58-.2-.13-.53-.22-1.12-.29v-.2s1.37.11,1.63.11c.23,0,.3-.07.3-.25v-3.45h-4.58l-.1-.35h4.68v-1.54l1.19.13Zm-3.53,4.33c-.18-.67-.84-1.52-1.38-2.02l.12-.11c2.76.9,2.13,2.72,1.26,2.12Z"/>
  <path d="m40.79,118.03c-.04.13-.16.19-.32.19h-4.51c1.08,2.41,3.07,4.58,4.98,5.58l-.04.12c-.35.02-.66.28-.8.66-1.82-1.27-3.44-3.5-4.37-6.28v7.44c0,.12-.34.32-.64.32h-.16v-6.91c-1.06,2.27-2.76,4.31-4.98,5.73l-.16-.16c2.04-1.64,3.68-4.13,4.55-6.5h-4.27l-.1-.35h4.95v-2.82l1.22.14c-.02.17-.12.28-.43.32v2.35h3.29l.64-.78s.71.54,1.14.94Z"/>
  <path d="m43.1,119.71c-.19-.53-.83-1.14-1.36-1.45l.11-.12c2.55.3,2.11,2.04,1.25,1.57Zm-.2,2.58q.25-.42,2.87-5.28l.22.07c-.65,1.49-1.98,4.35-2.19,4.92-.12.35-.23.72-.22,1.01,0,.52.34,1.03.29,1.98-.02.49-.25.8-.66.8-.22,0-.36-.22-.38-.59.17-1.21.08-2.08-.19-2.25-.17-.1-.36-.13-.6-.16v-.26h.56c.14,0,.19-.01.31-.24Zm1.33-5.17c-.22-.59-.9-1.28-1.46-1.65l.12-.11c2.7.43,2.23,2.24,1.34,1.76Zm7.81,4.14c-1.66,2.97-4.39,4.29-7.53,4.79l-.05-.2c2.87-.78,5.48-2.3,6.94-5.35l1.1.68c-.08.11-.2.16-.47.08Zm-4.52-3.36c-.55,1.42-1.34,2.69-2.22,3.53l-.18-.12c.61-1,1.22-2.53,1.58-4.03l1.27.41c-.05.12-.19.23-.46.22Zm1.98-2.34v6.21c0,.12-.34.31-.62.31h-.14v-6.98l1.21.13c-.02.17-.14.28-.44.32Zm2.59,4.62c-.14-.94-1-2.1-1.75-2.78l.13-.11c3.24,1.37,2.58,3.62,1.62,2.89Z"/>
  <path d="m58.26,120.56c0-.61.49-1.1,1.1-1.1s1.1.49,1.1,1.1-.49,1.1-1.1,1.1-1.1-.49-1.1-1.1Z"/>
  <path d="m76.91,121.81c-.04.13-.14.19-.31.19h-4.31c-.08.23-.17.44-.28.65,5.53,1.63,5.03,3.9,4.04,3.35-.56-.85-2.06-2.16-4.15-3.14-.8,1.43-2.44,2.48-5.76,3.24l-.1-.23c3.38-.92,4.81-2.17,5.41-3.86h-5.37l-.1-.36h5.58c.37-1.31.32-2.87.32-4.74l1.26.14c-.04.16-.13.28-.42.3-.02,1.66-.02,3.08-.34,4.29h2.77l.62-.77s.7.54,1.12.94Zm-1.31-6.16l.89.84c-.08.08-.22.1-.47.11-.35.38-.96,1.09-1.4,1.49h-.19c.2-.43.47-1.09.67-1.58h-8.2l-.11-.36h8.31l.5-.49Zm-6.03,5.54c-.46-.62-1.62-1.5-2.43-1.94l.11-.13c3.45.64,3.26,2.45,2.33,2.08Zm.77-2.03c-.43-.56-1.5-1.38-2.24-1.83l.11-.12c3.26.61,3.05,2.28,2.13,1.96Z"/>
  <path d="m88.91,121.81c-.04.13-.14.19-.31.19h-4.31c-.08.23-.17.44-.28.65,5.53,1.63,5.03,3.9,4.04,3.35-.56-.85-2.06-2.16-4.15-3.14-.8,1.43-2.44,2.48-5.76,3.24l-.1-.23c3.38-.92,4.81-2.17,5.41-3.86h-5.37l-.1-.36h5.58c.37-1.31.32-2.87.32-4.74l1.26.14c-.04.16-.13.28-.42.3-.02,1.66-.02,3.08-.34,4.29h2.77l.62-.77s.7.54,1.12.94Zm-1.31-6.16l.89.84c-.08.08-.22.1-.47.11-.35.38-.96,1.09-1.4,1.49h-.19c.2-.43.47-1.09.67-1.58h-8.2l-.11-.36h8.31l.5-.49Zm-6.03,5.54c-.46-.62-1.62-1.5-2.43-1.94l.11-.13c3.45.64,3.26,2.45,2.33,2.08Zm.77-2.03c-.43-.56-1.5-1.38-2.24-1.83l.11-.12c3.26.61,3.05,2.28,2.13,1.96Z"/>
  <path d="m91.65,120.58v-2.42h-1.7l-.1-.35h1.8v-2.75l1.2.13c-.04.17-.16.29-.44.32v2.29h.4l.49-.67s.56.47.9.83c-.04.13-.14.19-.31.19h-1.48v2.18l1.72-.58.06.17-1.78.94v4.03c0,.65-.12,1.03-1.15,1.15-.04-.24-.1-.46-.24-.59-.16-.13-.43-.22-.89-.28v-.19s1.04.07,1.26.07c.2,0,.26-.06.26-.24v-3.57l-1.3.62c-.04.16-.14.28-.25.31l-.38-1.02c.38-.1,1.08-.31,1.93-.59Zm4.4,1.09c-.04.16-.16.28-.42.29-.08.46-.2.88-.34,1.26.36.91.85,1.39,1.52,1.63v-4.07h-2.87l-.1-.35h5.39l.54-.66s.62.47,1.01.83c-.04.12-.14.18-.31.18h-2.9v1.74h1.28l.55-.7s.62.49,1.01.86c-.04.13-.17.19-.31.19h-2.53v2.13c.29.04.59.05.92.05.58,0,1.87,0,2.51-.01v.17c-.26.05-.4.29-.41.6h-2.15c-1.68,0-2.66-.43-3.29-2.25-.48,1.14-1.19,1.96-2.13,2.48l-.16-.16c1.1-.96,1.81-2.43,1.98-4.44l1.2.22Zm-1.33-6.27l.82.37h3.39l.43-.48.96.73c-.08.1-.26.2-.5.25v3.25c-.01.07-.4.28-.65.28h-.12v-.6h-3.56v.43c0,.08-.34.26-.66.26h-.11v-4.5Zm4.33,1.93v-1.21h-3.56v1.21h3.56Zm-3.56,1.52h3.56v-1.17h-3.56v1.17Z"/>
  <path d="m50.34,134.89v-2.61l.46.05c.43-.5.92-1.24,1.28-1.75h-4.1l-.11-.35h4.29l.54-.52.91.85c-.1.1-.24.11-.49.12-.5.44-1.34,1.19-2.04,1.68l.46.05c-.02.18-.13.29-.42.32v1.97l2.33-.59.05.19-2.37.97v4.04c0,.66-.12,1.06-1.18,1.16-.04-.25-.1-.46-.25-.6-.17-.13-.43-.22-.92-.29v-.18s1.1.07,1.32.07c.19,0,.25-.06.25-.23v-3.68l-1.81.68c-.04.14-.16.25-.28.29l-.43-1.1c.5-.08,1.42-.29,2.52-.55Zm5-5.19c-.02.17-.13.29-.42.34v8.93c0,.3.1.42.59.42h1.09c.54,0,.9-.01,1.08-.02.13-.02.18-.06.24-.18.1-.22.26-1.12.42-1.97h.16l.04,2.05c.3.1.37.18.37.34,0,.38-.47.44-2.33.44h-1.21c-.98,0-1.26-.25-1.26-.96v-9.52l1.24.13Z"/>
  <path d="m64.38,132.51v7.64c0,.11-.32.3-.62.3h-.14v-2.84h-3.57l-.11-.36h3.68v-1.62h-2.95l-.11-.36h3.06v-1.46h-3.35l-.11-.36h3.45v-1.39l1.21.13c-.04.17-.13.28-.44.32Zm-1.18-3.03l1.18.11c-.02.17-.12.29-.43.32v.8h2.84v-1.24l1.19.11c-.02.17-.12.29-.42.32v.8h1.71l.55-.7s.64.5,1.02.86c-.02.13-.14.19-.31.19h-2.97v.74c0,.07-.25.2-.64.22h-.13v-.96h-2.84v.79c0,.08-.31.19-.62.19h-.12v-.98h-3.15l-.07-.36h3.23v-1.24Zm3.78,3.02v.95h2.01l.54-.67s.61.48,1.01.84c-.02.13-.16.19-.32.19h-3.24v1.48h1.69l.53-.64s.58.44.95.79c-.02.13-.14.19-.31.19h-2.85v1.61h2.25l.54-.67s.65.48,1.03.84c-.02.13-.14.19-.31.19h-3.51v2.54c0,.11-.32.3-.62.3h-.16v-8.4l1.22.13c-.04.17-.14.28-.44.32Z"/>
  <path d="m76.38,132.51v7.64c0,.11-.32.3-.62.3h-.14v-2.84h-3.57l-.11-.36h3.68v-1.62h-2.95l-.11-.36h3.06v-1.46h-3.35l-.11-.36h3.45v-1.39l1.21.13c-.04.17-.13.28-.44.32Zm-1.18-3.03l1.18.11c-.02.17-.12.29-.43.32v.8h2.84v-1.24l1.19.11c-.02.17-.12.29-.42.32v.8h1.71l.55-.7s.64.5,1.02.86c-.02.13-.14.19-.31.19h-2.97v.74c0,.07-.25.2-.64.22h-.13v-.96h-2.84v.79c0,.08-.31.19-.62.19h-.12v-.98h-3.15l-.07-.36h3.23v-1.24Zm3.78,3.02v.95h2.01l.54-.67s.61.48,1.01.84c-.02.13-.16.19-.32.19h-3.24v1.48h1.69l.53-.64s.58.44.95.79c-.02.13-.14.19-.31.19h-2.85v1.61h2.25l.54-.67s.65.48,1.03.84c-.02.13-.14.19-.31.19h-3.51v2.54c0,.11-.32.3-.62.3h-.16v-8.4l1.22.13c-.04.17-.14.28-.44.32Z"/>
  <path d="m48.9,144.63l.94.4h6.84l.44-.49,1,.76c-.08.1-.29.2-.53.25v4.17c-.01.08-.41.26-.67.26h-.12v-.9h-7.1v4.03c0,.5.48.61,1.33.61h5.04c.94,0,1.28-.06,1.46-.43.16-.32.41-1.34.53-2.05h.16l.02,2.21c.42.12.55.17.55.34,0,.42-.55.67-2.67.67h-5.01c-1.45,0-2.19-.29-2.19-1.37v-8.46Zm.79.74v3.36h3.15v-3.36h-3.15Zm3.93,3.36h3.17v-3.36h-3.17v3.36Z"/>
  <path d="m72.83,154.84h-.14v-10.69l.85.42h7.57l.46-.52.98.78c-.08.11-.29.18-.53.23v9.42c-.01.07-.38.3-.67.3h-.12v-.75h-7.76v.5c0,.12-.28.31-.64.31Zm.64-9.92v8.75h7.76v-8.75h-7.76Zm3.12.67c-.1.23-.22.47-.36.71h2.66l.53-.48.84.78c-.1.1-.22.12-.52.13-.46.71-1.05,1.34-1.77,1.92.9.46,1.94.78,3.01.97v.14c-.32.05-.55.29-.65.65-1.1-.31-2.09-.76-2.91-1.36-1,.67-2.17,1.21-3.51,1.58l-.11-.18c1.17-.43,2.27-1.04,3.17-1.76-.52-.44-.95-.97-1.27-1.57-.44.59-.97,1.15-1.55,1.61l-.12-.16c.86-.98,1.57-2.41,1.9-3.55l1.09.44c-.05.12-.19.14-.42.12Zm2.63,7.82c-.68-.5-2.27-1.24-4.11-1.64l.05-.19c5.13.22,5,2.05,4.07,1.83Zm-1.81-5.08c.58-.52,1.06-1.09,1.42-1.68h-2.79l-.18.25c.38.55.92,1.03,1.56,1.43Zm1.01,2.96c-.34-.32-1.13-.79-2.09-1.05l.05-.19c3-.04,2.78,1.45,2.04,1.25Z"/>
  <path d="m26.42,159.37l.62-.77s.71.53,1.14.94c-.02.13-.14.19-.32.19h-4.2v3.75h2.33l.6-.76s.7.53,1.12.91c-.04.13-.16.19-.32.19h-3.72v4.5h3.41l.62-.78s.71.54,1.15.94c-.04.13-.16.19-.34.19h-10.47l-.11-.35h4.92v-4.5h-3.59l-.1-.35h3.68v-3.75h-4.11l-.11-.36h7.8Zm-.1,7.66c-.17-.8-.96-1.75-1.64-2.33l.12-.1c3.11,1,2.48,3.09,1.52,2.42Z"/>
  <path d="m33.76,164.53h3.72l.59-.5.88.84c-.1.11-.24.13-.55.14-.61.88-1.39,1.62-2.33,2.24,1.27.56,2.87.92,4.87,1.09v.14c-.37.08-.62.31-.7.72-2.06-.31-3.61-.83-4.81-1.57-1.49.83-3.31,1.39-5.48,1.69l-.07-.22c1.91-.4,3.61-1.01,4.99-1.85-.72-.53-1.31-1.16-1.82-1.89-.72.74-1.6,1.46-2.58,1.96l-.12-.16c1.37-.96,2.64-2.6,3.19-3.81l1.19.32c-.05.13-.17.19-.49.2-.13.2-.29.43-.47.65Zm7.12-1.4c-.04.13-.14.19-.31.19h-10.53l-.11-.36h5.03v-1.26h-3.6l-.1-.36h3.69v-1.16h-4.23l-.11-.36h4.34v-1.51l1.24.13c-.02.17-.14.28-.44.32v1.06h2.89l.58-.71s.65.5,1.06.88c-.02.13-.14.19-.31.19h-4.21v1.16h2.28l.56-.7s.64.49,1.04.86c-.04.13-.14.19-.31.19h-3.57v1.26h3.49l.59-.71s.65.49,1.06.88Zm-5.49,3.79c.83-.58,1.51-1.26,2.01-2.03h-3.93l-.24.26c.58.71,1.28,1.29,2.16,1.76Z"/>
  <path d="m46.3,158.72c-.06.13-.22.23-.48.2-.3.59-.62,1.14-.98,1.67h6.43l.54-.53.94.9c-.1.08-.23.12-.48.13-.41.61-1.18,1.45-1.8,1.97l-.16-.1c.34-.54.74-1.38.98-2.03h-6.69c-.8,1.1-1.72,2.04-2.65,2.73l-.16-.13c1.16-1.21,2.46-3.25,3.25-5.35l1.26.53Zm-.34,4.85c-.06.13-.17.2-.46.16-.66,1.33-1.92,3.08-3.53,4.19l-.14-.13c1.33-1.28,2.42-3.25,2.93-4.72l1.2.52Zm2.31-1.81c-.02.17-.13.28-.42.31v5.97c0,.66-.14,1.08-1.36,1.2-.05-.25-.12-.47-.31-.6-.2-.14-.55-.24-1.18-.32v-.18s1.46.11,1.74.11c.24,0,.31-.07.31-.28v-6.34l1.21.13Zm3.37,5.68c-.26-1.32-1.46-3.11-2.41-4.21l.17-.1c3.78,2.61,3.23,5.08,2.24,4.3Z"/>
  <path d="m55.09,162.63c-.2-.53-.84-1.13-1.37-1.46l.11-.11c2.59.28,2.13,2.04,1.26,1.57Zm-.19,2.97q.24-.43,2.63-5.13l.22.07c-.6,1.46-1.76,4.2-1.95,4.77-.13.35-.2.72-.2,1.02,0,.54.35,1.08.31,2.04-.02.52-.28.84-.68.84-.23,0-.37-.22-.4-.6.17-1.25.08-2.17-.18-2.34-.17-.11-.35-.14-.61-.17v-.26h.56c.13,0,.18,0,.31-.24Zm1.27-5.42c-.22-.58-.91-1.25-1.49-1.61l.11-.12c2.73.41,2.28,2.22,1.38,1.73Zm4.13,7.78v-8.06h-2.94l-.1-.35h5.78l.56-.73s.65.5,1.06.89c-.04.13-.16.19-.32.19h-3.2v8.06h2.34l.56-.74s.67.54,1.08.91c-.04.13-.16.19-.31.19h-8.12l-.1-.36h3.71Z"/>
  <path d="m70.26,163.76c0-.61.49-1.1,1.1-1.1s1.1.49,1.1,1.1-.49,1.1-1.1,1.1-1.1-.49-1.1-1.1Z"/>
  <path d="m88.95,159.9c-.04.13-.16.19-.31.19h-8.81v2.97c0,1.98-.12,4.46-1.87,6.16l-.17-.12c1.15-1.73,1.26-3.93,1.26-6.03v-3.74l.92.4h7.34l.58-.73s.66.52,1.07.9Zm-5.41.89l-.37.88h3.68l.58-.68s.62.48,1.03.84c-.02.13-.14.19-.31.19h-5.13c-.35.77-.75,1.62-1.08,2.25h2.25v-1.96l1.21.14c-.04.16-.13.28-.42.31v1.5h1.55l.53-.66s.6.47.97.82c-.04.13-.14.19-.31.19h-2.73v1.69h2.34l.55-.67s.64.48,1.03.84c-.04.13-.14.19-.32.19h-3.6v2.34s-.25.25-.66.25h-.13v-2.59h-4.04l-.11-.36h4.15v-1.69h-2.33l-.42.4-.83-.73c.14-.07.38-.17.59-.22.3-.56.66-1.32.98-2.05h-1.82l-.1-.35h2.08c.24-.56.44-1.08.58-1.46l1.12.4c-.07.13-.22.24-.49.19Zm.31-1.19c-.18-.43-.66-1-1.06-1.31l.12-.1c2.29.3,1.76,1.85.94,1.4Z"/>
  <path d="m94.3,158.72c-.06.13-.22.23-.48.2-.3.59-.62,1.14-.98,1.67h6.43l.54-.53.94.9c-.1.08-.23.12-.48.13-.41.61-1.18,1.45-1.8,1.97l-.16-.1c.34-.54.74-1.38.98-2.03h-6.69c-.8,1.1-1.71,2.04-2.65,2.73l-.16-.13c1.16-1.21,2.46-3.25,3.25-5.35l1.26.53Zm-.34,4.85c-.06.13-.17.2-.46.16-.66,1.33-1.92,3.08-3.53,4.19l-.14-.13c1.33-1.28,2.42-3.25,2.93-4.72l1.2.52Zm2.31-1.81c-.02.17-.13.28-.42.31v5.97c0,.66-.14,1.08-1.35,1.2-.05-.25-.12-.47-.31-.6-.2-.14-.55-.24-1.17-.32v-.18s1.46.11,1.74.11c.24,0,.31-.07.31-.28v-6.34l1.21.13Zm3.37,5.68c-.26-1.32-1.46-3.11-2.41-4.21l.17-.1c3.78,2.61,3.23,5.08,2.24,4.3Z"/>
  <path d="m103.2,166.72v-3.47h-1.18l-.1-.35h1.27v-3.01h-1.31l-.1-.36h2.51l.53-.68s.6.48.97.85c-.04.13-.14.19-.31.19h-1.54v3.01h.29l.44-.61s.5.46.79.78c-.02.12-.13.18-.3.18h-1.22v3.19l1.66-.62.07.17c-.79.46-1.91,1.14-3.33,1.91-.02.13-.12.26-.24.31l-.41-.97c.3-.08.84-.28,1.5-.52Zm5.13-8.22c-.01.17-.11.29-.41.34v4.47c-.01,2.47-.61,4.59-3.03,5.92l-.16-.16c1.96-1.4,2.46-3.38,2.46-5.77v-4.93l1.14.12Zm-2.31,2.09c.52,1.71.28,3.06-.01,3.63-.19.4-.6.62-.83.44-.19-.16-.13-.46.05-.7.43-.6.71-2.06.56-3.38h.23Zm3.8,7.76v-4.4h-1.46l-.1-.34h1.56v-3.81h-1.67l-.1-.35h3.21l.58-.72s.64.5,1.03.88c-.04.13-.14.19-.32.19h-1.97v3.81h.72l.48-.71s.55.5.88.86c-.04.13-.14.18-.31.18h-1.76v4.4h1.02l.54-.79s.64.55.98.95c-.04.13-.14.19-.3.19h-5.45l-.1-.35h2.53Z"/>
</svg>