<?xml version="1.0" encoding="UTF-8"?>
<svg id="_图层_1" data-name="图层 1" xmlns="http://www.w3.org/2000/svg" viewBox="0 0 128 128">
  <defs>
    <style>
      .cls-1 {
        fill: #fff;
      }
    </style>
  </defs>
  <rect class="cls-1" width="128" height="128" rx="24" ry="24"/>
  <path d="m108.32,31.51c0-2.39-1.09-4.64-3.28-6.75-3.14-3-7.47-4.5-13-4.5-4.85,0-10.2,1.06-16.07,3.17-3.07,1.09-5.73,2.59-7.98,4.5-3.48,3-5.22,6.01-5.22,9.01,0,4.03,2.56,7.64,7.68,10.85,1.91,1.16,5.75,3.05,11.51,5.68,5.77,2.63,9.98,4.76,12.64,6.4,4.02,2.46,6.81,5.08,8.34,7.88,1.54,2.8,2.3,5.39,2.3,7.78,0,3.41-1.13,6.89-3.38,10.44-3.96,6.35-9.76,11.8-17.4,16.38-8.8,5.32-19.41,7.98-31.83,7.98s-21.43-3.04-28.45-9.11c-5.46-4.64-8.19-10.61-8.19-17.91,0-4.64,1.69-9.76,5.07-15.35,3.38-5.59,7.52-9.55,12.44-11.87,1.02-.41,1.79-.55,2.3-.41.51.14.08.79-1.28,1.94-2.93,2.32-5.29,4.88-7.06,7.68-3.82,6-5.73,12.52-5.73,19.55,0,4.64,1.3,8.7,3.89,12.18,4.64,6.21,12.69,9.72,24.15,10.54,1.3.14,3.22.2,5.78.2s6.04-.46,10.44-1.38c4.4-.92,8.65-2.44,12.74-4.55,8.8-4.64,14.5-10.64,17.09-18.01.82-2.18,1.23-4.3,1.23-6.35,0-4.64-2.08-8.73-6.24-12.28-2.25-1.77-6.84-4.15-13.77-7.11-6.93-2.97-11.58-5.24-13.97-6.81-5.25-3.55-7.88-7.74-7.88-12.59,0-4.23,2.35-8.36,7.06-12.38,6.75-5.73,16.31-8.6,28.66-8.6,5.8,0,10.52.87,14.18,2.61,3.65,1.74,5.89,4.35,6.7,7.83.14.68.2,1.37.2,2.05,0,2.66-1.23,5.05-3.68,7.16-1.71,1.37-3.99,2.46-6.86,3.28-1.23.34-1.91.2-2.05-.41-.14-.89.72-1.43,2.56-1.64,3.27-.41,5.29-2.05,6.04-4.91.2-.75.31-1.47.31-2.15Z"/>
</svg>